<svg width="500" height="500" viewBox="0 0 500 500" fill="none" xmlns="http://www.w3.org/2000/svg">
<circle cx="249.5" cy="249.5" r="216.5" fill="#708993"/>
<ellipse cx="249.195" cy="164.991" rx="71.6183" ry="69.9907" fill="#AFB9BB"/>
<path d="M145.759 394C121.458 394 101.117 373.841 108.557 350.707C109.857 346.667 111.34 342.677 113.004 338.751C120.428 321.235 131.31 305.32 145.028 291.913C158.746 278.507 175.031 267.873 192.955 260.618C210.878 253.362 230.088 249.628 249.488 249.628C268.888 249.628 288.099 253.362 306.022 260.618C323.945 267.873 340.231 278.507 353.949 291.913C367.667 305.32 378.548 321.235 385.972 338.751C387.637 342.677 389.12 346.667 390.419 350.708C397.86 373.841 377.518 394 353.218 394L249.488 394L145.759 394Z" fill="#AFB9BB"/>
</svg>
